<!DOCTYPE svg PUBLIC "-//W3C//DTD SVG 1.1//EN" "http://www.w3.org/Graphics/SVG/1.1/DTD/svg11.dtd">
<!-- Uploaded to: SVG Repo, www.svgrepo.com, Transformed by: SVG Repo Mixer Tools -->
<svg fill="#ffffff" height="800px" width="800px" version="1.1" id="Capa_1" xmlns="http://www.w3.org/2000/svg" xmlns:xlink="http://www.w3.org/1999/xlink" viewBox="0 0 400 400" xml:space="preserve" stroke="#ffffff">
<g id="SVGRepo_bgCarrier" stroke-width="0"/>
<g id="SVGRepo_tracerCarrier" stroke-linecap="round" stroke-linejoin="round"/>
<g id="SVGRepo_iconCarrier"> <path d="M272.715,376.603v-10.67V97.913V44.338V33.623h-35.146L127.285,0v365.934v10.67h-17.408V400h180.246v-23.397H272.715z M189.063,70.276h21.875v21.872h-21.875V70.276z M189.063,114.614h21.875v21.872h-21.875V114.614z M189.063,158.952h21.875v21.872 h-21.875V158.952z M189.063,203.29h21.875v21.872h-21.875V203.29z M189.063,291.963h21.875v21.875h-21.875V291.963z M166.6,313.838 h-21.875v-21.875H166.6V313.838z M166.6,269.5h-21.875v-21.873H166.6V269.5z M166.6,225.162h-21.875V203.29H166.6V225.162z M166.6,180.824h-21.875v-21.872H166.6V180.824z M166.6,92.148h-21.875V70.276H166.6V92.148z M218.618,376.603h-37.236v-29.366 h37.236V376.603z M255.275,269.5H233.4v-21.873h21.875V269.5z M255.275,225.162H233.4V203.29h21.875V225.162z M255.275,136.486 H233.4v-21.872h21.875V136.486z M255.275,92.148H233.4V70.276h21.875V92.148z"/> </g>
</svg>